HIERARCHY
ROOT Hips
{
  OFFSET 90.7885 88.945 -76.2838
  CHANNELS 6 Xposition Yposition Zposition Zrotation Xrotation Yrotation
  JOINT LeftUpLeg
  {
    OFFSET 8.64259 1.95398 -2.38835
    CHANNELS 3 Zrotation Xrotation Yrotation
    JOINT LeftLeg
    {
      OFFSET 43.7702 0 0
      CHANNELS 3 Zrotation Xrotation Yrotation
      JOINT LeftFoot
      {
        OFFSET 40.6238 0 0
        CHANNELS 3 Zrotation Xrotation Yrotation
        JOINT LeftToeBase
        {
          OFFSET 12.7242 0 0
          CHANNELS 3 Zrotation Xrotation Yrotation
          End Site
          {
            OFFSET 0 0 0
          }
        }
      }
    }
  }
  JOINT RightUpLeg
  {
    OFFSET -8.2249 1.95398 -2.59336
    CHANNELS 3 Zrotation Xrotation Yrotation
    JOINT RightLeg
    {
      OFFSET 43.5653 0 0
      CHANNELS 3 Zrotation Xrotation Yrotation
      JOINT RightFoot
      {
        OFFSET 40.6238 0 0
        CHANNELS 3 Zrotation Xrotation Yrotation
        JOINT RightToeBase
        {
          OFFSET 12.7242 0 0
          CHANNELS 3 Zrotation Xrotation Yrotation
          End Site
          {
            OFFSET 0 0 0
          }
        }
      }
    }
  }
  JOINT Spine
  {
    OFFSET 0.165834 0.87714 6.61349
    CHANNELS 3 Zrotation Xrotation Yrotation
    JOINT Spine1
    {
      OFFSET 7.38963 1.71661e-005 0
      CHANNELS 3 Zrotation Xrotation Yrotation
      JOINT Spine2
      {
        OFFSET 11.9445 1.14441e-005 0
        CHANNELS 3 Zrotation Xrotation Yrotation
        JOINT Spine3
        {
          OFFSET 14.7254 4.19617e-005 0
          CHANNELS 3 Zrotation Xrotation Yrotation
          JOINT Spine4
          {
            OFFSET 10.9679 0 0
            CHANNELS 3 Zrotation Xrotation Yrotation
            JOINT RightShoulder
            {
              OFFSET 2.46616 -1.6653 3.69651
              CHANNELS 3 Zrotation Xrotation Yrotation
              JOINT RightArm
              {
                OFFSET 13.0012 0 0
                CHANNELS 3 Zrotation Xrotation Yrotation
                JOINT RightForeArm
                {
                  OFFSET 28.7848 1.52588e-005 0
                  CHANNELS 3 Zrotation Xrotation Yrotation
                  JOINT RightHand
                  {
                    OFFSET 26.5688 1.52588e-005 0
                    CHANNELS 3 Zrotation Xrotation Yrotation
                    End Site
                    {
                      OFFSET 0 0 0
                    }
                  }
                }
              }
            }
            JOINT LeftShoulder
            {
              OFFSET 2.38034 -1.29275 -3.7523
              CHANNELS 3 Zrotation Xrotation Yrotation
              JOINT LeftArm
              {
                OFFSET 16.3182 6.10352e-005 0
                CHANNELS 3 Zrotation Xrotation Yrotation
                JOINT LeftForeArm
                {
                  OFFSET 27.0901 0 0
                  CHANNELS 3 Zrotation Xrotation Yrotation
                  JOINT LeftHand
                  {
                    OFFSET 24.5451 1.52588e-005 0
                    CHANNELS 3 Zrotation Xrotation Yrotation
                    End Site
                    {
                      OFFSET 0 0 0
                    }
                  }
                }
              }
            }
            JOINT Neck
            {
              OFFSET 5.0226 -0.0266342 0
              CHANNELS 3 Zrotation Xrotation Yrotation
              JOINT Head
              {
                OFFSET 6.69363 2.86102e-005 0
                CHANNELS 3 Zrotation Xrotation Yrotation
                End Site
                {
                  OFFSET 0 0 0
                }
              }
            }
          }
        }
      }
    }
  }
}
MOTION
Frames:	6
Frame Time:	0.0416667
-321.989 95.0905 302.545 -103.506 -44.6812 -102.139 -177.379 -5.54107 89.3166 -10.0296 15.5509 0.394102 68.3945 4.38238 0.218129 11.5568 0.102376 2.44922 170.027 -3.55233 84.8906 -16.7981 -15.9866 -3.06128 68.1354 -4.34287 -0.540031 26.9525 -1.80595 4.50023 -0.299508 8.90523 -89.6825 9.06434 -0.455502 0.660756 -2.60671 -0.425974 0.680154 -25.1417 -0.633023 0.493318 -5.12901 -0.633023 0.493311 79.6374 -28.4502 -127.56 34.8448 -5.52222 -7.13813 -6.20704 -9.89851 -4.0772 -14.3672 1.25888 -20.3646 -83.8363 -48.767 87.8598 -21.3262 17.5529 -17.1878 1.13242 -17.427 -7.9062 8.13856 -0.0386592 -3.80586 10.6166 20.0323 1.38317 -8.79444 18.9816 5.74778 
-322.03 95.1133 302.546 -103.451 -44.7654 -102.066 -177.333 -5.48423 89.4083 -10.1106 15.3782 0.370739 68.816 4.51119 -0.354935 10.5011 -0.0605091 2.75226 170.017 -3.69476 84.9544 -16.515 -16.0862 -3.02878 68.1242 -4.36065 -0.758472 26.6581 -1.78307 4.48543 -0.269314 8.88822 -89.7032 9.09822 -0.404393 0.616275 -2.57282 -0.376894 0.633471 -25.1077 -0.57092 0.466243 -5.09509 -0.570923 0.466241 79.969 -28.6468 -126.813 34.8259 -5.87108 -7.02982 -5.87205 -9.91024 -4.57152 -14.7033 1.28397 -20.2268 -83.8992 -48.9248 87.7814 -20.5562 18.2302 -17.6695 0.74542 -18.4431 -7.3592 8.3583 -0.0697807 -4.15004 10.8001 19.8436 1.41876 -9.29772 18.7597 5.58638 
-322.155 95.112 302.6 -103.378 -44.9163 -101.965 -177.213 -5.55551 89.5684 -9.88968 15.74 0.298281 68.7199 4.49387 -0.0485777 11.5652 0.330917 2.20143 170.093 -3.93571 85.088 -16.126 -15.9141 -3.05101 68.076 -4.32287 -0.77292 26.7035 -1.77419 4.45973 -0.161841 8.86659 -89.7854 9.14095 -0.226776 0.441164 -2.53005 -0.207145 0.450711 -25.0649 -0.348888 0.352614 -5.05229 -0.348886 0.352615 81.4258 -28.6321 -124.091 35.3119 -6.65808 -7.08851 -5.07536 -10.5768 -5.42031 -15.5191 1.26235 -19.5381 -84.5663 -50.2163 86.9213 -19.2163 18.5323 -17.8406 0.562611 -17.7471 -7.49781 8.36792 -0.0569703 -4.01249 6.07508 17.8321 4.761 0.148529 16.8358 5.19731 
-322.389 95.1362 302.721 -103.271 -45.2395 -101.75 -176.975 -5.58908 89.9134 -9.73577 16.3787 0.198581 68.6308 4.45768 0.0386322 12.0407 0.191113 2.29176 170.115 -4.28701 85.3191 -15.6047 -15.7183 -2.94254 67.9717 -4.28558 -1.05173 26.6349 -1.88637 4.72071 -0.0135693 8.78112 -89.8673 9.31155 0.0325221 0.260542 -2.35942 0.0439585 0.25886 -24.8944 -0.0472774 0.258273 -4.88172 -0.0472746 0.258273 83.3345 -28.6531 -120.441 36.661 -7.30103 -6.92184 -4.18362 -11.6115 -6.46272 -16.877 1.22587 -18.5072 -85.6992 -50.8156 85.3004 -18.4432 19.2012 -17.9713 0.493857 -16.6822 -6.74504 7.68701 -0.0976365 -4.45013 -3.47581 13.6337 7.98802 18.3516 13.7084 7.22327 
-322.698 95.1582 302.854 -103.12 -45.6523 -101.394 -176.664 -5.52625 90.4382 -9.78946 16.9158 0.106528 68.9839 4.56168 -0.152494 11.2522 0.147184 2.43906 170.273 -4.9023 85.7413 -14.6372 -15.1511 -2.86425 67.8993 -4.26683 -1.02267 26.4181 -1.83517 4.63203 0.152471 8.64194 -89.9545 9.58993 0.32438 0.0652191 -2.08099 0.326947 0.0508624 -24.6164 0.289757 0.159677 -4.60375 0.289793 0.159691 85.373 -28.8565 -116.382 38.046 -8.26021 -6.26842 -2.83584 -12.9758 -7.91117 -18.6091 1.13486 -17.1071 -86.7048 -50.777 83.7935 -18.6771 19.5455 -17.5553 0.672811 -14.7118 -6.28808 6.82248 -0.145615 -5.05473 -5.26286 12.3764 7.98876 19.7616 12.7437 7.40549 
-323.091 95.2103 302.99 -102.955 -46.0267 -101.025 -176.351 -5.61522 91.0079 -9.56909 17.5218 0.0470977 68.8642 4.46634 -0.446075 11.6549 -0.115354 2.67275 170.452 -5.58292 86.2099 -13.6329 -14.6819 -2.79229 67.8062 -4.25114 -1.13235 25.8967 -1.77744 4.567 0.351076 8.51115 -90.0706 9.85221 0.6679 -0.193629 -1.81857 0.658723 -0.222844 -24.3551 0.695211 0.0160662 -4.34246 0.695215 0.0160581 88.026 -28.5583 -111.29 40.019 -9.09105 -5.62878 -1.71449 -15.0701 -9.60985 -20.0009 0.953282 -15.8733 -87.9768 -51.6633 82.0552 -18.3178 19.7242 -17.1595 0.860462 -12.2869 -6.08725 5.60726 -0.15327 -5.27043 -1.74811 12.8167 7.43239 10.2277 12.3469 6.31353 
